
<svg xmlns="http://www.w3.org/2000/svg" version="1.1" xmlns:xlink="http://www.w3.org/1999/xlink" preserveAspectRatio="none" x="0px" y="0px" width="200px" height="200px" viewBox="0 0 200 200">

<path fill="#FFC52C" stroke="none" d="
M 170.8 77.6
L 182.9 38.85 144.65 38.85 132.5 0 100.1 25 68.85 1.8 56.8 38.85 16.95 38.85 30 78.95 0 102 29.15 123.55 16.9 161.1 56.7 161.1 68.85 198.3 99.25 175.4 132.5 200 144.7 161.05 182.8 161.05 170.45 121.6 200 99.3 170.8 77.6
M 131.15 51.55
Q 135.65 54.6 139.75 58.7 156.35 75.3 156.35 98.6 156.35 99 156.35 99.3 156.35 100.05 156.35 100.75 156.35 101.05 156.35 101.5 156.35 124.8 139.75 141.4 135.65 145.45 131.15 148.5 117.45 157.8 100 157.8 76.7 157.8 60.1 141.4 43.65 124.8 43.65 101.5 43.65 101.05 43.65 100.75 43.65 100.35 43.8 100.05 43.8 99.6 43.8 99.3
L 43.65 99.3
Q 43.65 99 43.65 98.6 43.65 75.3 60.1 58.7 76.7 42.25 100 42.25 117.45 42.25 131.15 51.55 Z"/>

<path fill="#FEE7AC" stroke="none" d="
M 139.75 58.7
Q 135.65 54.6 131.15 51.55 117.45 42.25 100 42.25 76.7 42.25 60.1 58.7 43.65 75.3 43.65 98.6 43.65 99 43.65 99.3
L 43.8 99.3
Q 43.8 99.6 43.8 100.05 43.65 100.35 43.65 100.75 43.65 101.05 43.65 101.5 43.65 124.8 60.1 141.4 76.7 157.8 100 157.8 117.45 157.8 131.15 148.5 135.65 145.45 139.75 141.4 156.35 124.8 156.35 101.5 156.35 101.05 156.35 100.75 156.35 100.05 156.35 99.3 156.35 99 156.35 98.6 156.35 75.3 139.75 58.7 Z"/>
<animateTransform attributeType="xml"
                    attributeName="transform"
                    type="rotate"
                    from="0 100 100"
                    to="360 100 100"
                    dur="10s"
                    repeatCount="indefinite"/>
</svg>
