
<svg xmlns="http://www.w3.org/2000/svg" version="1.1" xmlns:xlink="http://www.w3.org/1999/xlink" preserveAspectRatio="none" x="0px" y="0px" width="320px" height="107px" viewBox="0 0 320 107">
<defs>
<g id="Symbol_3_0_Layer1_0_FILL">
<path fill="#0085D1" stroke="none" d="
M 132.45 41.9
Q 130.35 39.8 127.25 38.5 124.1 37.25 119.85 37.25 115.55 37.25 111.55 39.55 107.5 41.85 104.3 45.7 101.15 49.5 99.3 54.35 97.4 59.25 97.4 64.4 97.4 70.75 99.25 75.1 101.1 79.5 104.05 82.1 107.05 84.75 110.75 85.9 114.4 87.05 118.15 87.05 121.4 87.05 124.45 86.25 127.55 85.5 129.9 84.25 132.25 83.05 133.65 81.4 135.05 79.75 135.05 77.95 135.05 75.75 133.35 74.1 131.6 72.45 127.95 72.05 126.65 75.55 124.35 77.4 122 79.3 119.5 79.3 117.4 79.3 115.85 78.3 114.3 77.35 113.35 75.7 112.35 74 111.95 71.85
L 111.55 67.2 119.1 68.15
Q 123.45 68.15 126.65 66.75 129.95 65.35 132.15 63.1 134.35 60.85 135.5 58 136.55 55.2 136.55 52.2 136.55 49.35 135.6 46.65 134.55 43.95 132.45 41.9
M 115.25 52.55
Q 116.4 50.7 117.95 49.5 119.5 48.35 121.35 48.35 122.1 48.35 122.6 49.35 123.15 50.25 123.15 51.8
L 122.55 54.9
Q 122 56.5 120.65 58 119.4 59.5 117.25 60.65 115.1 61.7 111.9 62.1
L 113.15 57 115.25 52.55
M 215.75 37.25
Q 211.45 37.25 207.45 39.55 203.4 41.85 200.2 45.7 197.05 49.5 195.2 54.35 193.3 59.25 193.3 64.4 193.3 70.75 195.15 75.1 197 79.5 199.95 82.1 202.95 84.75 206.65 85.9 210.3 87.05 214.05 87.05 217.3 87.05 220.35 86.25 223.45 85.5 225.8 84.25 228.15 83.05 229.55 81.4 230.95 79.75 230.95 77.95 230.95 75.75 229.25 74.1 227.5 72.45 223.85 72.05 222.55 75.55 220.25 77.4 217.9 79.3 215.4 79.3 213.3 79.3 211.75 78.3 210.2 77.35 209.25 75.7 208.25 74 207.85 71.85
L 207.45 67.2 215 68.15
Q 219.35 68.15 222.55 66.75 225.85 65.35 228.05 63.1 230.25 60.85 231.4 58 232.45 55.2 232.45 52.2 232.45 49.35 231.5 46.65 230.45 43.95 228.35 41.9 226.25 39.8 223.15 38.5 220 37.25 215.75 37.25
M 217.25 48.35
Q 218 48.35 218.5 49.35 219.05 50.25 219.05 51.8
L 218.45 54.9
Q 217.9 56.5 216.55 58 215.3 59.5 213.15 60.65 211 61.7 207.8 62.1
L 209.05 57 211.15 52.55
Q 212.3 50.7 213.85 49.5 215.4 48.35 217.25 48.35
M 258.85 39.35
Q 256.25 39.55 254.1 41.65 251.95 43.75 250.3 46.65
L 250.3 45.2
Q 250.3 42.65 248.95 41.65 247.65 40.7 245.65 40.7 243.7 40.7 241.55 41.35
L 233 44.85
Q 234.65 48.75 235.25 52 235.85 55.3 235.85 59.4
L 235.05 77
Q 235.05 79.65 235.8 81.35 236.5 83.05 237.7 84 238.9 85.05 240.5 85.45
L 243.9 85.8 251.7 84.85
Q 250.05 82.95 249.45 79.9 248.75 76.9 248.75 72.95
L 250.25 50.35
Q 251.2 49.5 252.5 49.45 254.25 49.5 254.8 51.3 255.45 53.1 255.45 55.3
L 255.2 58.95 254.75 61.25
Q 258.55 61.15 261.3 60.1 263.95 59.15 265.65 57.6 267.35 56.05 268.1 54.1 268.85 52.2 268.85 50.2 268.85 48.15 268.15 46.25 267.45 44.3 266.1 42.8 264.8 41.25 262.95 40.3 261.05 39.35 258.85 39.35
M 195.8 -3.55
Q 192.5 -3.55 189.45 -2 186.05 -0.35 183.15 3.2 179.9 7.1 177.4 13.1 174.15 22.55 172.9 28.9 167.7 28.35 163.15 27.05 159 25.8 155.45 23.9 152.15 22.2 149.5 19.95 147.05 17.9 145.05 15.45 140.1 9.25 138.3 -0.95
L 132.65 2.6
Q 130.25 4.4 128.55 6.35 126.95 8.25 126.1 10.15 125.2 12.15 125.2 14 125.2 15.65 126.3 17.4 127.35 19.1 129.35 20.75 135.8 25.05 140.25 26.9 149.85 30.3 155.3 31.45 160.8 32.6 172.15 33.4
L 171.2 41.4
Q 169.7 39.8 167.9 38.9 165.8 37.85 163.45 37.85 161.3 37.85 159.3 38.55 157.45 39.25 155.7 40.5 152.45 43 150 47.4 147.7 51.55 146.45 56.75 145.15 61.85 145.15 66.95 145.15 70.55 145.8 73.7 146.55 76.95 147.9 79.35 149.3 81.9 151.35 83.25 153.5 84.65 156.3 84.65 160.1 84.65 163 82.8 164.9 81.45 166.7 79.25 168.75 76.8 170.7 73.1
L 172.1 79.3
Q 173.1 82.7 174.4 85.2 175.9 88.05 177.65 89.6 179.6 91.3 181.85 91.3 184.55 91.3 189.95 88.5
L 194.05 85.75
Q 192.2 85.25 190.6 84.15 189.15 83.05 187.95 81.35 185.9 78.3 184.75 73.2 183.3 67 183.2 53.75 183.2 46.8 184.35 32.6 189.4 31.85 193.55 30.25 197.95 28.5 201.2 25.9 204.65 23.15 206.65 19.45 208.85 15.5 209.4 10.65 209.4 7.75 208.55 5.2 207.65 2.6 205.95 0.7 204.2 -1.3 201.65 -2.4 199.05 -3.55 195.8 -3.55
M 189.4 10
Q 190.35 8.45 191.35 8.45 193.5 8.45 194.6 10.1 195.7 11.6 195.7 14.1 195.7 16.1 194.95 18.3 194.25 20.55 192.9 22.55 191.4 24.75 189.45 26.3 187.3 28 184.75 28.75 185.95 19.65 187.65 14.25 188.5 11.5 189.4 10
M 165.9 48.9
Q 168.05 46.55 170.7 46.25
L 170.15 56.55
Q 169.6 60.8 168.5 64.25 167.55 67.3 166.25 69.55 163.95 73.55 161.7 73.55 159.9 73.55 159.9 67.8 159.9 64.75 160.5 61.3 161.2 57.5 162.5 54.4 163.9 50.95 165.9 48.9
M 63.45 -8.35
Q 58.6 -6.25 53.3 -1.85 57.05 -0.85 60.35 1.1 63.55 3 66.25 5.7 68.85 8.3 71.05 11.65 73.1 14.85 74.8 18.65
L 77.6 26.5 79.5 34.8
Q 80.9 46.2 80.9 51.75 80.9 58.45 80.1 64.65 79.35 70.7 77.85 75.35 76.4 80.05 74.55 82.65 72.6 85.35 70.45 85.35 67.75 85.35 65.65 82.7 63.65 80.25 62.35 75.65 61.15 71.45 60.5 65.65 59.9 60.3 59.9 54.15 59.9 47.35 61.45 34.85 62.2 30.45 63.3 27.35 64.35 24.05 65.7 22.45
L 60.3 17.95
Q 53.4 13.35 50.05 13.35 47.8 13.35 46.3 14.65 44.6 16.15 43.8 19.4
L 42.9 26.1
Q 42.05 33.7 42.05 42.5 42.45 55.05 43.5 61.25 40.25 68.3 37.5 71.7 34.95 74.9 32.85 74.9 31.5 74.9 30.45 73.55 29.4 72.25 28.7 69.8 27.75 66.6 27.3 56.95 27.3 51.8 27.9 46.2 28.55 40.4 29.8 34.85 31.1 29 32.95 24.05 34.95 18.7 37.45 14.8 38.05 13.8 38.05 12.9 38.05 10.5 34.35 9.15 31.2 7.95 27 7.95 24.55 7.95 21.9 8.6
L 16.9 10.3
Q 14.1 11.5 6.7 15.45 0.05 19.1 -4.2 20.6 -12.15 22.95 -16.65 22.95 -20.2 22.95 -27.95 21.05
L -34.25 18.35 -40.95 14.3
Q -44.9 17.75 -47 21.75 -49 25.55 -49 29.1 -49 31.4 -48.15 33.3 -47.25 35.25 -45.45 36.65 -43.6 38.1 -40.8 38.85 -37.9 39.65 -34.15 39.65 -29.4 39.65 -23.95 37.85 -19.65 36.5 -13.7 33.55
L -3.15 28.15
Q 3.35 25 8.15 23.25 7.15 26.6 6.65 30.7
L 6.25 39
Q 6.8 49.85 7.85 55.2 10.4 65.7 12.4 70.15
L 15.65 76.3
Q 17.5 79.1 19.55 81.1 21.65 83.15 23.95 84.25 26.35 85.35 28.9 85.35 30.95 85.35 32.95 84.65 35.1 83.95 37.3 82.5 39.55 80.95 41.85 78.65
L 46.55 73.1
Q 48.15 77.1 50.2 80.3 52.45 83.7 55.25 86.05 58.3 88.6 61.95 89.9 65.85 91.3 70.45 91.3 73.45 91.2 76.25 89.95 78.85 88.75 81.25 86.4 83.55 84.15 85.5 80.95 87.5 77.85 89.1 73.95 91.2 68.9 93.9 56.7 95 50.45 95.55 37.15 95.55 31.1 94.1 19.55 93.15 13.9 89.8 4.3 88.3 0.95 86.5 -1.7 84.6 -4.45 82.45 -6.35 80.2 -8.3 77.7 -9.35 75 -10.35 72.1 -10.35 67.95 -10.35 63.45 -8.35 Z"/>
</g>

<g id="Symbol_3_0_Layer0_0_FILL">
<path fill="#FFFFFF" stroke="none" d="
M 130.5 37.1
Q 128.4 35 125.3 33.7 122.15 32.45 117.9 32.45 113.6 32.45 109.6 34.75 105.55 37.05 102.35 40.9 99.2 44.7 97.35 49.55 95.45 54.45 95.45 59.6 95.45 65.95 97.3 70.3 99.15 74.7 102.1 77.3 105.1 79.95 108.8 81.1 112.45 82.25 116.2 82.25 119.45 82.25 122.5 81.45 125.6 80.7 127.95 79.45 130.3 78.25 131.7 76.6 133.1 74.95 133.1 73.15 133.1 70.95 131.4 69.3 129.65 67.65 126 67.25 124.7 70.75 122.4 72.6 120.05 74.5 117.55 74.5 115.45 74.5 113.9 73.5 112.35 72.55 111.4 70.9 110.4 69.2 110 67.05
L 109.6 62.4 117.15 63.35
Q 121.5 63.35 124.7 61.95 128 60.55 130.2 58.3 132.4 56.05 133.55 53.2 134.6 50.4 134.6 47.4 134.6 44.55 133.65 41.85 132.6 39.15 130.5 37.1
M 119.4 43.55
Q 120.15 43.55 120.65 44.55 121.2 45.45 121.2 47
L 120.6 50.1
Q 120.05 51.7 118.7 53.2 117.45 54.7 115.3 55.85 113.15 56.9 109.95 57.3
L 111.2 52.2 113.3 47.75
Q 114.45 45.9 116 44.7 117.55 43.55 119.4 43.55
M 221.2 33.7
Q 218.05 32.45 213.8 32.45 209.5 32.45 205.5 34.75 201.45 37.05 198.25 40.9 195.1 44.7 193.25 49.55 191.35 54.45 191.35 59.6 191.35 65.95 193.2 70.3 195.05 74.7 198 77.3 201 79.95 204.7 81.1 208.35 82.25 212.1 82.25 215.35 82.25 218.4 81.45 221.5 80.7 223.85 79.45 226.2 78.25 227.6 76.6 229 74.95 229 73.15 229 70.95 227.3 69.3 225.55 67.65 221.9 67.25 220.6 70.75 218.3 72.6 215.95 74.5 213.45 74.5 211.35 74.5 209.8 73.5 208.25 72.55 207.3 70.9 206.3 69.2 205.9 67.05
L 205.5 62.4 213.05 63.35
Q 217.4 63.35 220.6 61.95 223.9 60.55 226.1 58.3 228.3 56.05 229.45 53.2 230.5 50.4 230.5 47.4 230.5 44.55 229.55 41.85 228.5 39.15 226.4 37.1 224.3 35 221.2 33.7
M 215.3 43.55
Q 216.05 43.55 216.55 44.55 217.1 45.45 217.1 47
L 216.5 50.1
Q 215.95 51.7 214.6 53.2 213.35 54.7 211.2 55.85 209.05 56.9 205.85 57.3
L 207.1 52.2 209.2 47.75
Q 210.35 45.9 211.9 44.7 213.45 43.55 215.3 43.55
M 256.9 34.55
Q 254.3 34.75 252.15 36.85 250 38.95 248.35 41.85
L 248.35 40.4
Q 248.35 37.85 247 36.85 245.7 35.9 243.7 35.9 241.75 35.9 239.6 36.55
L 231.05 40.05
Q 232.7 43.95 233.3 47.2 233.9 50.5 233.9 54.6
L 233.1 72.2
Q 233.1 74.85 233.85 76.55 234.55 78.25 235.75 79.2 236.95 80.25 238.55 80.65
L 241.95 81 249.75 80.05
Q 248.1 78.15 247.5 75.1 246.8 72.1 246.8 68.15
L 248.3 45.55
Q 249.25 44.7 250.55 44.65 252.3 44.7 252.85 46.5 253.5 48.3 253.5 50.5
L 253.25 54.15 252.8 56.45
Q 256.6 56.35 259.35 55.3 262 54.35 263.7 52.8 265.4 51.25 266.15 49.3 266.9 47.4 266.9 45.4 266.9 43.35 266.2 41.45 265.5 39.5 264.15 38 262.85 36.45 261 35.5 259.1 34.55 256.9 34.55
M 136.35 -5.75
L 130.7 -2.2
Q 128.3 -0.4 126.6 1.55 125 3.45 124.15 5.35 123.25 7.35 123.25 9.2 123.25 10.85 124.35 12.6 125.4 14.3 127.4 15.95 133.85 20.25 138.3 22.1 147.9 25.5 153.35 26.65 158.85 27.8 170.2 28.6
L 169.25 36.6
Q 167.75 35 165.95 34.1 163.85 33.05 161.5 33.05 159.35 33.05 157.35 33.75 155.5 34.45 153.75 35.7 150.5 38.2 148.05 42.6 145.75 46.75 144.5 51.95 143.2 57.05 143.2 62.15 143.2 65.75 143.85 68.9 144.6 72.15 145.95 74.55 147.35 77.1 149.4 78.45 151.55 79.85 154.35 79.85 158.15 79.85 161.05 78 162.95 76.65 164.75 74.45 166.8 72 168.75 68.3
L 170.15 74.5
Q 171.15 77.9 172.45 80.4 173.95 83.25 175.7 84.8 177.65 86.5 179.9 86.5 182.6 86.5 188 83.7
L 192.1 80.95
Q 190.25 80.45 188.65 79.35 187.2 78.25 186 76.55 183.95 73.5 182.8 68.4 181.35 62.2 181.25 48.95 181.25 42 182.4 27.8 187.45 27.05 191.6 25.45 196 23.7 199.25 21.1 202.7 18.35 204.7 14.65 206.9 10.7 207.45 5.85 207.45 2.95 206.6 0.4 205.7 -2.2 204 -4.1 202.25 -6.1 199.7 -7.2 197.1 -8.35 193.85 -8.35 190.55 -8.35 187.5 -6.8 184.1 -5.15 181.2 -1.6 177.95 2.3 175.45 8.3 172.2 17.75 170.95 24.1 165.75 23.55 161.2 22.25 157.05 21 153.5 19.1 150.2 17.4 147.55 15.15 145.1 13.1 143.1 10.65 138.15 4.45 136.35 -5.75
M 192.65 5.3
Q 193.75 6.8 193.75 9.3 193.75 11.3 193 13.5 192.3 15.75 190.95 17.75 189.45 19.95 187.5 21.5 185.35 23.2 182.8 23.95 184 14.85 185.7 9.45 186.55 6.7 187.45 5.2 188.4 3.65 189.4 3.65 191.55 3.65 192.65 5.3
M 163.95 44.1
Q 166.1 41.75 168.75 41.45
L 168.2 51.75
Q 167.65 56 166.55 59.45 165.6 62.5 164.3 64.75 162 68.75 159.75 68.75 157.95 68.75 157.95 63 157.95 59.95 158.55 56.5 159.25 52.7 160.55 49.6 161.95 46.15 163.95 44.1
M 51.35 -6.65
Q 55.1 -5.65 58.4 -3.7 61.6 -1.8 64.3 0.9 66.9 3.5 69.1 6.85 71.15 10.05 72.85 13.85
L 75.65 21.7 77.55 30
Q 78.95 41.4 78.95 46.95 78.95 53.65 78.15 59.85 77.4 65.9 75.9 70.55 74.45 75.25 72.6 77.85 70.65 80.55 68.5 80.55 65.8 80.55 63.7 77.9 61.7 75.45 60.4 70.85 59.2 66.65 58.55 60.85 57.95 55.5 57.95 49.35 57.95 42.55 59.5 30.05 60.25 25.65 61.35 22.55 62.4 19.25 63.75 17.65
L 58.35 13.15
Q 51.45 8.55 48.1 8.55 45.85 8.55 44.35 9.85 42.65 11.35 41.85 14.6
L 40.95 21.3
Q 40.1 28.9 40.1 37.7 40.5 50.25 41.55 56.45 38.3 63.5 35.55 66.9 33 70.1 30.9 70.1 29.55 70.1 28.5 68.75 27.45 67.45 26.75 65 25.8 61.8 25.35 52.15 25.35 47 25.95 41.4 26.6 35.6 27.85 30.05 29.15 24.2 31 19.25 33 13.9 35.5 10 36.1 9 36.1 8.1 36.1 5.7 32.4 4.35 29.25 3.15 25.05 3.15 22.6 3.15 19.95 3.8
L 14.95 5.5
Q 12.15 6.7 4.75 10.65 -1.9 14.3 -6.15 15.8 -14.1 18.15 -18.6 18.15 -22.15 18.15 -29.9 16.25
L -36.2 13.55 -42.9 9.5
Q -46.85 12.95 -48.95 16.95 -50.95 20.75 -50.95 24.3 -50.95 26.6 -50.1 28.5 -49.2 30.45 -47.4 31.85 -45.55 33.3 -42.75 34.05 -39.85 34.85 -36.1 34.85 -31.35 34.85 -25.9 33.05 -21.6 31.7 -15.65 28.75
L -5.1 23.35
Q 1.4 20.2 6.2 18.45 5.2 21.8 4.7 25.9
L 4.3 34.2
Q 4.85 45.05 5.9 50.4 8.45 60.9 10.45 65.35
L 13.7 71.5
Q 15.55 74.3 17.6 76.3 19.7 78.35 22 79.45 24.4 80.55 26.95 80.55 29 80.55 31 79.85 33.15 79.15 35.35 77.7 37.6 76.15 39.9 73.85
L 44.6 68.3
Q 46.2 72.3 48.25 75.5 50.5 78.9 53.3 81.25 56.35 83.8 60 85.1 63.9 86.5 68.5 86.5 71.5 86.4 74.3 85.15 76.9 83.95 79.3 81.6 81.6 79.35 83.55 76.15 85.55 73.05 87.15 69.15 89.25 64.1 91.95 51.9 93.05 45.65 93.6 32.35 93.6 26.3 92.15 14.75 91.2 9.1 87.85 -0.5 86.35 -3.85 84.55 -6.5 82.65 -9.25 80.5 -11.15 78.25 -13.1 75.75 -14.15 73.05 -15.15 70.15 -15.15 66 -15.15 61.5 -13.15 56.65 -11.05 51.35 -6.65 Z"/>
</g>
</defs>

<g transform="matrix( 1.0006256103515625, 0, 0, 1.0051727294921875, 51,15.25) ">
<g transform="matrix( 1, 0, 0, 1, 0,0) ">
<use xlink:href="#Symbol_3_0_Layer1_0_FILL"/>
</g>

<g transform="matrix( 1, 0, 0, 1, 0,0) ">
<use xlink:href="#Symbol_3_0_Layer0_0_FILL"/>
</g>
</g>
</svg>
