
<svg xmlns="http://www.w3.org/2000/svg" version="1.1" xmlns:xlink="http://www.w3.org/1999/xlink" preserveAspectRatio="none" x="0px" y="0px" width="180px" height="140px" viewBox="0 0 180 140">
<defs>
<linearGradient id="Gradient_1" gradientUnits="userSpaceOnUse" x1="26.5625" y1="-3.4000000000000057" x2="26.5375" y2="120" spreadMethod="pad">
<stop  offset="0%" stop-color="#F6FEFE"/>

<stop  offset="100%" stop-color="#C8DDE6"/>
</linearGradient>

<g id="sol_0_Layer1_0_FILL">
<path fill="#FFC52C" stroke="none" d="
M 172.2 77.55
L 184.45 38.85 145.8 38.85 133.6 0 100.85 24.95 69.4 1.8 57.2 38.85 17.05 38.85 30.15 78.9 -0.05 102 29.35 123.55 17 161.1 57.15 161.05 69.4 198.3 100 175.35 133.6 200 145.85 161.05 184.35 161.05 171.9 121.6 201.7 99.3 172.2 77.55 Z"/>
</g>

<g id="bola_0_Layer0_0_FILL">
<path fill="#FEE7AC" stroke="none" d="
M 96.1 16.45
Q 92 12.35 87.5 9.3 73.8 0 56.35 0 33.05 0 16.45 16.45 0 33.05 0 56.35 0 56.75 0 57.05
L 0.15 57.05
Q 0.15 57.35 0.15 57.8 0 58.1 0 58.5 0 58.8 0 59.25 0 82.55 16.45 99.15 33.05 115.55 56.35 115.55 73.8 115.55 87.5 106.25 92 103.2 96.1 99.15 112.7 82.55 112.7 59.25 112.7 58.8 112.7 58.5 112.7 57.8 112.7 57.05 112.7 56.75 112.7 56.35 112.7 33.05 96.1 16.45 Z"/>
</g>

<g id="Symbol_5_0_Layer0_0_FILL">
<path fill="url(#Gradient_1)" stroke="none" d="
M 62.75 16.45
Q 58.65 12.35 54.15 9.3 40.45 0 23 0 10.55 0 0 4.75 7.5 7.05 14.15 11.55 18.65 14.6 22.75 18.7 39.35 35.3 39.35 58.6 39.35 59 39.35 59.3 39.35 60.05 39.35 60.75 39.35 61.05 39.35 61.5 39.35 84.8 22.75 101.4 18.65 105.45 14.15 108.5 10.2 111.2 5.95 113.1 13.95 115.55 23 115.55 40.45 115.55 54.15 106.25 58.65 103.2 62.75 99.15 79.35 82.55 79.35 59.25 79.35 58.8 79.35 58.5 79.35 57.8 79.35 57.05 79.35 56.75 79.35 56.35 79.35 33.05 62.75 16.45 Z"/>
</g>

<g id="strellita_0_Layer0_0_FILL">
<path fill="#FFFFFF" stroke="none" d="
M 5 2.5
Q 5 1.45 4.25 0.75 3.55 0 2.5 0 1.45 0 0.75 0.75 0 1.45 0 2.5 0 3.55 0.75 4.25 1.45 5 2.5 5 3.55 5 4.25 4.25 5 3.55 5 2.5 Z"/>
</g>

<g id="cloud_1_0_Layer0_0_FILL">
<path fill="#FFFFFF" stroke="none" d="
M 127.9 43.65
Q 128.7 41.05 128.7 38.1 128.7 30.85 123.4 25.65 118.35 20.45 111.05 20.45 103.65 20.45 98.45 25.65 98 26.1 97.65 26.6 96 16.85 88.6 9.4 79.2 0 65.75 0 52.35 0 42.8 9.4 35.75 16.6 34 26 33.2 25.9 32.35 25.9 18.95 25.9 9.4 35.3 0 44.85 0 58.25 0 71.65 9.4 81.05 18.95 90.6 32.35 90.6
L 127.05 90.6
Q 136.45 90.35 143.05 83.65 150 76.7 150 67.05 150 57.3 143.05 50.35 136.7 44 127.9 43.65 Z"/>
</g>
</defs>

<g transform="matrix( 0.869781494140625, 0, 0, 0.875, 46.7,49.85) ">
<g transform="matrix( 0.79974365234375, 0, 0, 0.79998779296875, -30.8,-57) ">
<g transform="matrix( 1, 0, 0, 1, 0,0) ">
<g transform="matrix( 1, 0, 0, 1, 0,0) ">
<use xlink:href="#sol_0_Layer1_0_FILL"/>
</g>

<g transform="matrix( 1, 0, 0, 1, 44.35,42.2) ">
<g transform="matrix( 1, 0, 0, 1, 0,0) ">
<use xlink:href="#bola_0_Layer0_0_FILL"/>
</g>
</g>
</g>
</g>
</g>

<g transform="matrix( 1, 0, 0, 1, 478.5,173.5) ">
<g transform="matrix( 1, 0, 0, 1, -22.8,0) ">
<g transform="matrix( 1, 0, 0, 1, 33.35,0) ">
<g transform="matrix( 1, 0, 0, 1, 0,0) ">
<use xlink:href="#Symbol_5_0_Layer0_0_FILL"/>
</g>
</g>

<g transform="matrix( 1, 0, 0, 1, 109.3,106.45) ">
<g transform="matrix( 1, 0, 0, 1, 0,0) ">
<use xlink:href="#strellita_0_Layer0_0_FILL"/>
</g>
</g>

<g transform="matrix( 1, 0, 0, 1, 17.5,7.5) ">
<g transform="matrix( 1, 0, 0, 1, 0,0) ">
<use xlink:href="#strellita_0_Layer0_0_FILL"/>
</g>
</g>

<g transform="matrix( 1, 0, 0, 1, 57.5,-22.5) ">
<g transform="matrix( 1, 0, 0, 1, 0,0) ">
<use xlink:href="#strellita_0_Layer0_0_FILL"/>
</g>
</g>

<g transform="matrix( 1, 0, 0, 1, 17.5,87.5) ">
<g transform="matrix( 1, 0, 0, 1, 0,0) ">
<use xlink:href="#strellita_0_Layer0_0_FILL"/>
</g>
</g>
</g>

<g transform="matrix( 0.8311614990234375, 0, 0, 0.8311614990234375, -76.45,24) ">
<g transform="matrix( 1, 0, 0, 1, 0,0) ">
<use xlink:href="#cloud_1_0_Layer0_0_FILL"/>
</g>
</g>
</g>
</svg>
