
<svg xmlns="http://www.w3.org/2000/svg" version="1.1" xmlns:xlink="http://www.w3.org/1999/xlink" preserveAspectRatio="none" x="0px" y="0px" width="100px" height="140px" viewBox="0 0 100 140">
<defs>
<linearGradient id="Gradient_1" gradientUnits="userSpaceOnUse" x1="26.5625" y1="-3.4000000000000057" x2="26.5375" y2="120" spreadMethod="pad">
<stop  offset="0%" stop-color="#F6FEFE"/>

<stop  offset="100%" stop-color="#C8DDE6"/>
</linearGradient>

<g id="Symbol_5_0_Layer0_0_FILL">
<path fill="url(#Gradient_1)" stroke="none" d="
M 62.75 16.45
Q 58.65 12.35 54.15 9.3 40.45 0 23 0 10.55 0 0 4.75 7.5 7.05 14.15 11.55 18.65 14.6 22.75 18.7 39.35 35.3 39.35 58.6 39.35 59 39.35 59.3 39.35 60.05 39.35 60.75 39.35 61.05 39.35 61.5 39.35 84.8 22.75 101.4 18.65 105.45 14.15 108.5 10.2 111.2 5.95 113.1 13.95 115.55 23 115.55 40.45 115.55 54.15 106.25 58.65 103.2 62.75 99.15 79.35 82.55 79.35 59.25 79.35 58.8 79.35 58.5 79.35 57.8 79.35 57.05 79.35 56.75 79.35 56.35 79.35 33.05 62.75 16.45 Z"/>
</g>

<g id="strellita_0_Layer0_0_FILL">
<path fill="#FFFFFF" stroke="none" d="
M 5 2.5
Q 5 1.45 4.25 0.75 3.55 0 2.5 0 1.45 0 0.75 0.75 0 1.45 0 2.5 0 3.55 0.75 4.25 1.45 5 2.5 5 3.55 5 4.25 4.25 5 3.55 5 2.5 Z"/>
</g>
</defs>

<g transform="matrix( 1.033050537109375, 0, 0, 1.014129638671875, -18.1,22.8) ">
<g transform="matrix( 1, 0, 0, 1, 33.35,0) ">
<g transform="matrix( 1, 0, 0, 1, 0,0) ">
<use xlink:href="#Symbol_5_0_Layer0_0_FILL"/>
</g>
</g>

<g transform="matrix( 1, 0, 0, 1, 109.3,106.45) ">
<g transform="matrix( 1, 0, 0, 1, 0,0) ">
<use xlink:href="#strellita_0_Layer0_0_FILL"/>
</g>
</g>

<g transform="matrix( 1, 0, 0, 1, 17.5,7.5) ">
<g transform="matrix( 1, 0, 0, 1, 0,0) ">
<use xlink:href="#strellita_0_Layer0_0_FILL"/>
</g>
</g>

<g transform="matrix( 1, 0, 0, 1, 57.5,-22.5) ">
<g transform="matrix( 1, 0, 0, 1, 0,0) ">
<use xlink:href="#strellita_0_Layer0_0_FILL"/>
</g>
</g>

<g transform="matrix( 1, 0, 0, 1, 17.5,87.5) ">
<g transform="matrix( 1, 0, 0, 1, 0,0) ">
<use xlink:href="#strellita_0_Layer0_0_FILL"/>
</g>
</g>
</g>
</svg>
