
<svg xmlns="http://www.w3.org/2000/svg" version="1.1" xmlns:xlink="http://www.w3.org/1999/xlink" preserveAspectRatio="none" x="0px" y="0px" width="225px" height="100px" viewBox="0 0 225 100">
<defs>
<g id="dark_cloud_0_Layer1_0_FILL">
<path fill="#BBBBBB" fill-opacity="0.4980392156862745" stroke="none" d="
M 127.9 43.65
Q 128.7 41.05 128.7 38.1 128.7 30.85 123.4 25.65 118.35 20.45 111.05 20.45 103.65 20.45 98.45 25.65 98 26.1 97.65 26.6 96 16.85 88.6 9.4 79.2 0 65.75 0 52.35 0 42.8 9.4 35.75 16.6 34 26 33.2 25.9 32.35 25.9 18.95 25.9 9.4 35.3 0 44.85 0 58.25 0 71.65 9.4 81.05 18.95 90.6 32.35 90.6
L 127.05 90.6
Q 136.45 90.35 143.05 83.65 150 76.7 150 67.05 150 57.3 143.05 50.35 136.7 44 127.9 43.65 Z"/>
</g>

<g id="dark_cloud_0_Layer0_0_FILL">
<path fill="#BBBBBB" stroke="none" d="
M 144.05 44.05
Q 137.7 37.7 128.9 37.35 129.7 34.75 129.7 31.8 129.7 24.55 124.4 19.35 119.35 14.15 112.05 14.15 104.65 14.15 99.45 19.35 99 19.8 98.65 20.3 97 10.55 89.6 3.1 80.2 -6.3 66.75 -6.3 53.35 -6.3 43.8 3.1 36.75 10.3 35 19.7 34.2 19.6 33.35 19.6 19.95 19.6 10.4 29 1 38.55 1 51.95 1 65.35 10.4 74.75 19.95 84.3 33.35 84.3
L 128.05 84.3
Q 137.45 84.05 144.05 77.35 151 70.4 151 60.75 151 51 144.05 44.05 Z"/>
</g>

<g id="cloud_1_0_Layer1_0_FILL">
<path fill="#FFFFFF" fill-opacity="0.4980392156862745" stroke="none" d="
M 127.9 43.65
Q 128.7 41.05 128.7 38.1 128.7 30.85 123.4 25.65 118.35 20.45 111.05 20.45 103.65 20.45 98.45 25.65 98 26.1 97.65 26.6 96 16.85 88.6 9.4 79.2 0 65.75 0 52.35 0 42.8 9.4 35.75 16.6 34 26 33.2 25.9 32.35 25.9 18.95 25.9 9.4 35.3 0 44.85 0 58.25 0 71.65 9.4 81.05 18.95 90.6 32.35 90.6
L 127.05 90.6
Q 136.45 90.35 143.05 83.65 150 76.7 150 67.05 150 57.3 143.05 50.35 136.7 44 127.9 43.65 Z"/>
</g>

<g id="cloud_1_0_Layer0_0_FILL">
<path fill="#FFFFFF" stroke="none" d="
M 80.15 -7.2
Q 70.75 -16.6 57.3 -16.6 43.9 -16.6 34.35 -7.2 27.3 0 25.55 9.4 24.75 9.3 23.9 9.3 10.5 9.3 0.95 18.7 -8.45 28.25 -8.45 41.65 -8.45 55.05 0.95 64.45 10.5 74 23.9 74
L 118.6 74
Q 128 73.75 134.6 67.05 141.55 60.1 141.55 50.45 141.55 40.7 134.6 33.75 128.25 27.4 119.45 27.05 120.25 24.45 120.25 21.5 120.25 14.25 114.95 9.05 109.9 3.85 102.6 3.85 95.2 3.85 90 9.05 89.55 9.5 89.2 10 87.55 0.25 80.15 -7.2 Z"/>
</g>
</defs>

<g transform="matrix( 1, 0, 0, 0.9940338134765625, 0,-6.35) ">
<g transform="matrix( 1, 0, 0, 1, 74,12.7) ">
<g transform="matrix( 1, 0, 0, 1, 0,0) ">
<use xlink:href="#dark_cloud_0_Layer1_0_FILL"/>
</g>

<g transform="matrix( 1, 0, 0, 1, 0,0) ">
<use xlink:href="#dark_cloud_0_Layer0_0_FILL"/>
</g>
</g>

<g transform="matrix( 0.8311614990234375, 0, 0, 0.8311614990234375, 0,30) ">
<g transform="matrix( 1, 0, 0, 1, 0,0) ">
<use xlink:href="#cloud_1_0_Layer1_0_FILL"/>
</g>

<g transform="matrix( 1, 0, 0, 1, 8.45,10.15) ">
<use xlink:href="#cloud_1_0_Layer0_0_FILL"/>
</g>
</g>
</g>
</svg>
