
<svg xmlns="http://www.w3.org/2000/svg" version="1.1" xmlns:xlink="http://www.w3.org/1999/xlink" preserveAspectRatio="none" x="0px" y="0px" width="180px" height="140px" viewBox="0 0 180 140">
<defs>
<linearGradient id="Gradient_1" gradientUnits="userSpaceOnUse" x1="26.5625" y1="-3.4000000000000057" x2="26.5375" y2="120" spreadMethod="pad">
<stop  offset="0%" stop-color="#F6FEFE"/>

<stop  offset="100%" stop-color="#C8DDE6"/>
</linearGradient>

<g id="Layer1_0_FILL">
<path fill="#71b5fa" stroke="none" d="
M 45.65 115.55
Q 45.5 114.6 45 113.75
L 40.25 105.15 35.25 113.35
Q 34.55 114.4 34.35 115.65 34.25 116.1 34.25 116.65 34.25 119.05 35.9 120.7 37.6 122.4 40 122.4 42.4 122.4 44.05 120.7 45.75 119.05 45.75 116.65 45.75 116.1 45.65 115.55
M 116.55 112.2
Q 118.25 110.55 118.25 108.15 118.25 107.6 118.15 107.05 118 106.1 117.5 105.25
L 112.75 96.65 107.75 104.85
Q 107.05 105.9 106.85 107.15 106.75 107.6 106.75 108.15 106.75 110.55 108.4 112.2 110.1 113.9 112.5 113.9 114.9 113.9 116.55 112.2
M 90 116.1
Q 89.3 117.15 89.1 118.4 89 118.85 89 119.4 89 121.8 90.65 123.45 92.35 125.15 94.75 125.15 97.15 125.15 98.8 123.45 100.5 121.8 100.5 119.4 100.5 118.85 100.4 118.3 100.25 117.35 99.75 116.5
L 95 107.9 90 116.1
M 64.4 103.15
Q 64.25 102.2 63.75 101.35
L 59 92.75 54 100.95
Q 53.3 102 53.1 103.25 53 103.7 53 104.25 53 106.65 54.65 108.3 56.35 110 58.75 110 61.15 110 62.8 108.3 64.5 106.65 64.5 104.25 64.5 103.7 64.4 103.15
M 74.35 103.25
Q 74.25 103.7 74.25 104.25 74.25 106.65 75.9 108.3 77.6 110 80 110 82.4 110 84.05 108.3 85.75 106.65 85.75 104.25 85.75 103.7 85.65 103.15 85.5 102.2 85 101.35
L 80.25 92.75 75.25 100.95
Q 74.55 102 74.35 103.25
M 76 127.65
Q 76 127.1 75.9 126.55 75.75 125.6 75.25 124.75
L 70.5 116.15 65.5 124.35
Q 64.8 125.4 64.6 126.65 64.5 127.1 64.5 127.65 64.5 130.05 66.15 131.7 67.85 133.4 70.25 133.4 72.65 133.4 74.3 131.7 76 130.05 76 127.65
M 25.75 122.9
Q 25.75 122.35 25.65 121.8 25.5 120.85 25 120
L 20.25 111.4 15.25 119.6
Q 14.55 120.65 14.35 121.9 14.25 122.35 14.25 122.9 14.25 125.3 15.9 126.95 17.6 128.65 20 128.65 22.4 128.65 24.05 126.95 25.75 125.3 25.75 122.9
M 140.25 85.35
Q 139.55 86.4 139.35 87.65 139.25 88.1 139.25 88.65 139.25 91.05 140.9 92.7 142.6 94.4 145 94.4 147.4 94.4 149.05 92.7 150.75 91.05 150.75 88.65 150.75 88.1 150.65 87.55 150.5 86.6 150 85.75
L 145.25 77.15 140.25 85.35
M 142.9 116.95
Q 144.6 118.65 147 118.65 149.4 118.65 151.05 116.95 152.75 115.3 152.75 112.9 152.75 112.35 152.65 111.8 152.5 110.85 152 110
L 147.25 101.4 142.25 109.6
Q 141.55 110.65 141.35 111.9 141.25 112.35 141.25 112.9 141.25 115.3 142.9 116.95
M 127.5 87.9
L 122.5 96.1
Q 121.8 97.15 121.6 98.4 121.5 98.85 121.5 99.4 121.5 101.8 123.15 103.45 124.85 105.15 127.25 105.15 129.65 105.15 131.3 103.45 133 101.8 133 99.4 133 98.85 132.9 98.3 132.75 97.35 132.25 96.5
L 127.5 87.9
M 98.25 88.65
Q 98.25 91.05 99.9 92.7 101.6 94.4 104 94.4 106.4 94.4 108.05 92.7 109.75 91.05 109.75 88.65 109.75 88.1 109.65 87.55 109.5 86.6 109 85.75
L 104.25 77.15 99.25 85.35
Q 98.55 86.4 98.35 87.65 98.25 88.1 98.25 88.65
M 25.25 92.35
Q 24.55 93.4 24.35 94.65 24.25 95.1 24.25 95.65 24.25 98.05 25.9 99.7 27.6 101.4 30 101.4 32.4 101.4 34.05 99.7 35.75 98.05 35.75 95.65 35.75 95.1 35.65 94.55 35.5 93.6 35 92.75
L 30.25 84.15 25.25 92.35
M 95.85 73
Q 95.85 72.45 95.75 71.9 95.6 70.95 95.1 70.1
L 90.35 61.5 85.35 69.7
Q 84.65 70.75 84.45 72 84.35 72.45 84.35 73 84.35 75.4 86 77.05 87.7 78.75 90.1 78.75 92.5 78.75 94.15 77.05 95.85 75.4 95.85 73 Z"/>
</g>

<g id="sol_0_Layer1_0_FILL">
<path fill="#FFC52C" stroke="none" d="
M 172.2 77.55
L 184.45 38.85 145.8 38.85 133.6 0 100.85 24.95 69.4 1.8 57.2 38.85 17.05 38.85 30.15 78.9 -0.05 102 29.35 123.55 17 161.1 57.15 161.05 69.4 198.3 100 175.35 133.6 200 145.85 161.05 184.35 161.05 171.9 121.6 201.7 99.3 172.2 77.55 Z"/>
</g>

<g id="bola_0_Layer0_0_FILL">
<path fill="#FEE7AC" stroke="none" d="
M 96.1 16.45
Q 92 12.35 87.5 9.3 73.8 0 56.35 0 33.05 0 16.45 16.45 0 33.05 0 56.35 0 56.75 0 57.05
L 0.15 57.05
Q 0.15 57.35 0.15 57.8 0 58.1 0 58.5 0 58.8 0 59.25 0 82.55 16.45 99.15 33.05 115.55 56.35 115.55 73.8 115.55 87.5 106.25 92 103.2 96.1 99.15 112.7 82.55 112.7 59.25 112.7 58.8 112.7 58.5 112.7 57.8 112.7 57.05 112.7 56.75 112.7 56.35 112.7 33.05 96.1 16.45 Z"/>
</g>

<g id="Symbol_5_0_Layer0_0_FILL">
<path fill="url(#Gradient_1)" stroke="none" d="
M 62.75 16.45
Q 58.65 12.35 54.15 9.3 40.45 0 23 0 10.55 0 0 4.75 7.5 7.05 14.15 11.55 18.65 14.6 22.75 18.7 39.35 35.3 39.35 58.6 39.35 59 39.35 59.3 39.35 60.05 39.35 60.75 39.35 61.05 39.35 61.5 39.35 84.8 22.75 101.4 18.65 105.45 14.15 108.5 10.2 111.2 5.95 113.1 13.95 115.55 23 115.55 40.45 115.55 54.15 106.25 58.65 103.2 62.75 99.15 79.35 82.55 79.35 59.25 79.35 58.8 79.35 58.5 79.35 57.8 79.35 57.05 79.35 56.75 79.35 56.35 79.35 33.05 62.75 16.45 Z"/>
</g>

<g id="strellita_0_Layer0_0_FILL">
<path fill="#FFFFFF" stroke="none" d="
M 5 2.5
Q 5 1.45 4.25 0.75 3.55 0 2.5 0 1.45 0 0.75 0.75 0 1.45 0 2.5 0 3.55 0.75 4.25 1.45 5 2.5 5 3.55 5 4.25 4.25 5 3.55 5 2.5 Z"/>
</g>

<g id="cloud_1_0_Layer0_0_FILL">
<path fill="#EAEAEA" stroke="none" d="
M 127.9 43.65
Q 128.7 41.05 128.7 38.1 128.7 30.85 123.4 25.65 118.35 20.45 111.05 20.45 103.65 20.45 98.45 25.65 98 26.1 97.65 26.6 96 16.85 88.6 9.4 79.2 0 65.75 0 52.35 0 42.8 9.4 35.75 16.6 34 26 33.2 25.9 32.35 25.9 18.95 25.9 9.4 35.3 0 44.85 0 58.25 0 71.65 9.4 81.05 18.95 90.6 32.35 90.6
L 127.05 90.6
Q 136.45 90.35 143.05 83.65 150 76.7 150 67.05 150 57.3 143.05 50.35 136.7 44 127.9 43.65 Z"/>
</g>

<g id="thunder_0_Layer0_0_FILL">
<path fill="#71b5fa" stroke="none" d="
M 35.85 0
L 13.85 0 0 37.4 22.35 37.4 7.05 80 52.45 21.3 28.25 21.3 35.85 0 Z"/>
</g>

<g id="dark_cloud_0_Layer0_0_FILL">
<path fill="#BBBBBB" stroke="none" d="
M 127.9 43.65
Q 128.7 41.05 128.7 38.1 128.7 30.85 123.4 25.65 118.35 20.45 111.05 20.45 103.65 20.45 98.45 25.65 98 26.1 97.65 26.6 96 16.85 88.6 9.4 79.2 0 65.75 0 52.35 0 42.8 9.4 35.75 16.6 34 26 33.2 25.9 32.35 25.9 18.95 25.9 9.4 35.3 0 44.85 0 58.25 0 71.65 9.4 81.05 18.95 90.6 32.35 90.6
L 127.05 90.6
Q 136.45 90.35 143.05 83.65 150 76.7 150 67.05 150 57.3 143.05 50.35 136.7 44 127.9 43.65 Z"/>
</g>

<g id="Duplicate_Items_Folder_cloud_1_0_Layer0_0_FILL">
<path fill="#FFFFFF" stroke="none" d="
M 128.7 38.1
Q 128.7 30.85 123.4 25.65 118.35 20.45 111.05 20.45 103.65 20.45 98.45 25.65 98 26.1 97.65 26.6 96 16.85 88.6 9.4 79.2 0 65.75 0 52.35 0 42.8 9.4 35.75 16.6 34 26 33.2 25.9 32.35 25.9 18.95 25.9 9.4 35.3 0 44.85 0 58.25 0 71.65 9.4 81.05 18.95 90.6 32.35 90.6
L 127.05 90.6
Q 136.45 90.35 143.05 83.65 150 76.7 150 67.05 150 57.3 143.05 50.35 136.7 44 127.9 43.65 128.7 41.05 128.7 38.1 Z"/>
</g>

<g id="Duplicate_Items_Folder_dark_cloud_0_Layer0_0_FILL">
<path fill="#BBBBBB" stroke="none" d="
M 127.9 43.65
Q 128.7 41.05 128.7 38.1 128.7 30.85 123.4 25.65 118.35 20.45 111.05 20.45 103.65 20.45 98.45 25.65 98 26.1 97.65 26.6 96 16.85 88.6 9.4 79.2 0 65.75 0 52.35 0 42.8 9.4 35.75 16.6 34 26 33.2 25.9 32.35 25.9 18.95 25.9 9.4 35.3 0 44.85 0 58.25 0 71.65 9.4 81.05 18.95 90.6 32.35 90.6
L 127.05 90.6
Q 136.45 90.35 143.05 83.65 150 76.7 150 67.05 150 57.3 143.05 50.35 136.7 44 127.9 43.65 Z"/>
</g>

<g id="Duplicate_Items_Folder_cloud_1_copy_0_Layer0_0_FILL">
<path fill="#FFFFFF" stroke="none" d="
M 127.9 43.65
Q 128.7 41.05 128.7 38.1 128.7 30.85 123.4 25.65 118.35 20.45 111.05 20.45 103.65 20.45 98.45 25.65 98 26.1 97.65 26.6 96 16.85 88.6 9.4 79.2 0 65.75 0 52.35 0 42.8 9.4 35.75 16.6 34 26 33.2 25.9 32.35 25.9 18.95 25.9 9.4 35.3 0 44.85 0 58.25 0 71.65 9.4 81.05 18.95 90.6 32.35 90.6
L 127.05 90.6
Q 136.45 90.35 143.05 83.65 150 76.7 150 67.05 150 57.3 143.05 50.35 136.7 44 127.9 43.65 Z"/>
</g>
</defs>

<g transform="matrix( 1, 0, 0, 1, 0,0) ">
<use xlink:href="#Layer1_0_FILL"/>
</g>

<g transform="matrix( 0.869781494140625, 0, 0, 0.875, 388.95,49.85) ">
<g transform="matrix( 0.79974365234375, 0, 0, 0.79998779296875, -30.8,-57) ">
<g transform="matrix( 1, 0, 0, 1, 0,0) ">
<g transform="matrix( 1, 0, 0, 1, 0,0) ">
<use xlink:href="#sol_0_Layer1_0_FILL"/>
</g>

<g transform="matrix( 1, 0, 0, 1, 44.35,42.2) ">
<g transform="matrix( 1, 0, 0, 1, 0,0) ">
<use xlink:href="#bola_0_Layer0_0_FILL"/>
</g>
</g>
</g>
</g>
</g>

<g transform="matrix( 1, 0, 0, 1, 478.5,173.5) ">
<g transform="matrix( 1, 0, 0, 1, -22.8,0) ">
<g transform="matrix( 1, 0, 0, 1, 33.35,0) ">
<g transform="matrix( 1, 0, 0, 1, 0,0) ">
<use xlink:href="#Symbol_5_0_Layer0_0_FILL"/>
</g>
</g>

<g transform="matrix( 1, 0, 0, 1, 109.3,106.45) ">
<g transform="matrix( 1, 0, 0, 1, 0,0) ">
<use xlink:href="#strellita_0_Layer0_0_FILL"/>
</g>
</g>

<g transform="matrix( 1, 0, 0, 1, 17.5,7.5) ">
<g transform="matrix( 1, 0, 0, 1, 0,0) ">
<use xlink:href="#strellita_0_Layer0_0_FILL"/>
</g>
</g>

<g transform="matrix( 1, 0, 0, 1, 57.5,-22.5) ">
<g transform="matrix( 1, 0, 0, 1, 0,0) ">
<use xlink:href="#strellita_0_Layer0_0_FILL"/>
</g>
</g>

<g transform="matrix( 1, 0, 0, 1, 17.5,87.5) ">
<g transform="matrix( 1, 0, 0, 1, 0,0) ">
<use xlink:href="#strellita_0_Layer0_0_FILL"/>
</g>
</g>
</g>

<g transform="matrix( 0.8311614990234375, 0, 0, 0.8311614990234375, -76.45,24) ">
<g transform="matrix( 1, 0, 0, 1, 0,0) ">
<use xlink:href="#cloud_1_0_Layer0_0_FILL"/>
</g>
</g>
</g>

<g transform="matrix( 0.920013427734375, 0, 0, 0.9197540283203125, 390,-168.45) ">
<g transform="matrix( 0.8311614990234375, 0, 0, 0.8311614990234375, 0,30) ">
<g transform="matrix( 1, 0, 0, 1, 0,0) ">
<use xlink:href="#cloud_1_0_Layer0_0_FILL"/>
</g>
</g>

<g transform="matrix( -0.8311614990234375, 0, 0, 0.8311614990234375, 195.65,0) ">
<g transform="matrix( 1, 0, 0, 1, 0,0) ">
<use xlink:href="#cloud_1_0_Layer0_0_FILL"/>
</g>
</g>
</g>

<g id="MovieClip18" transform="matrix( 0.8000030517578125, 0, 0, 0.7997589111328125, 630,-103.95) ">
<g transform="matrix( 1, 0, 0, 1, 63.8,90) ">
<g transform="matrix( 1, 0, 0, 1, 0,0) ">
<use xlink:href="#thunder_0_Layer0_0_FILL"/>
</g>
</g>

<g transform="matrix( 0.6243896484375, 0, 0, 0.625, 133.6,85) ">
<g transform="matrix( 1, 0, 0, 1, 0,0) ">
<use xlink:href="#thunder_0_Layer0_0_FILL"/>
</g>
</g>

<g transform="matrix( 1, 0, 0, 1, 75,4.7) ">
<g transform="matrix( 1, 0, 0, 1, 0,0) ">
<use xlink:href="#dark_cloud_0_Layer0_0_FILL"/>
</g>
</g>

<g transform="matrix( 0.8311614990234375, 0, 0, 0.8311614990234375, 0,30) ">
<g transform="matrix( 1, 0, 0, 1, 0,0) ">
<use xlink:href="#Duplicate_Items_Folder_cloud_1_0_Layer0_0_FILL"/>
</g>
</g>
</g>

<g transform="matrix( 0.8000030517578125, 0, 0, 0.7996978759765625, 0,6.45) ">
<g transform="matrix( 1, 0, 0, 1, 75,4.7) ">
<g transform="matrix( 1, 0, 0, 1, 0,0) ">
<use xlink:href="#Duplicate_Items_Folder_dark_cloud_0_Layer0_0_FILL"/>
</g>
</g>

<g transform="matrix( 0.8311614990234375, 0, 0, 0.8311614990234375, 0,30) ">
<g transform="matrix( 1, 0, 0, 1, 0,0) ">
<use xlink:href="#Duplicate_Items_Folder_cloud_1_copy_0_Layer0_0_FILL"/>
</g>
</g>
</g>
</svg>
