
<svg xmlns="http://www.w3.org/2000/svg" version="1.1" xmlns:xlink="http://www.w3.org/1999/xlink" preserveAspectRatio="none" x="0px" y="0px" width="180px" height="140px" viewBox="0 0 180 140">
<defs>
<linearGradient id="Gradient_1" gradientUnits="userSpaceOnUse" x1="26.5625" y1="-3.4000000000000057" x2="26.5375" y2="120" spreadMethod="pad">
<stop  offset="0%" stop-color="#F6FEFE"/>

<stop  offset="100%" stop-color="#C8DDE6"/>
</linearGradient>

<g id="Layer2_0_FILL">
<path fill="#71b5fa" stroke="none" d="
M 103.6 119.95
Q 103.6 119.4 103.5 118.85 103.35 117.9 102.85 117.05
L 98.1 108.45 93.1 116.65
Q 92.4 117.7 92.2 118.95 92.1 119.4 92.1 119.95 92.1 122.35 93.75 124 95.45 125.7 97.85 125.7 100.25 125.7 101.9 124 103.6 122.35 103.6 119.95
M 56.85 111.05
L 52.1 102.45 47.1 110.65
Q 46.4 111.7 46.2 112.95 46.1 113.4 46.1 113.95 46.1 116.35 47.75 118 49.45 119.7 51.85 119.7 54.25 119.7 55.9 118 57.6 116.35 57.6 113.95 57.6 113.4 57.5 112.85 57.35 111.9 56.85 111.05
M 65.6 128.45
Q 65.6 130.85 67.25 132.5 68.95 134.2 71.35 134.2 73.75 134.2 75.4 132.5 77.1 130.85 77.1 128.45 77.1 127.9 77 127.35 76.85 126.4 76.35 125.55
L 71.6 116.95 66.6 125.15
Q 65.9 126.2 65.7 127.45 65.6 127.9 65.6 128.45
M 131.5 135
Q 133.9 135 135.55 133.3 137.25 131.65 137.25 129.25 137.25 128.7 137.15 128.15 137 127.2 136.5 126.35
L 131.75 117.75 126.75 125.95
Q 126.05 127 125.85 128.25 125.75 128.7 125.75 129.25 125.75 131.65 127.4 133.3 129.1 135 131.5 135
M 125.75 112.25
Q 125.75 111.7 125.65 111.15 125.5 110.2 125 109.35
L 120.25 100.75 115.25 108.95
Q 114.55 110 114.35 111.25 114.25 111.7 114.25 112.25 114.25 114.65 115.9 116.3 117.6 118 120 118 122.4 118 124.05 116.3 125.75 114.65 125.75 112.25
M 144.35 121.05
Q 144.25 121.5 144.25 122.05 144.25 124.45 145.9 126.1 147.6 127.8 150 127.8 152.4 127.8 154.05 126.1 155.75 124.45 155.75 122.05 155.75 121.5 155.65 120.95 155.5 120 155 119.15
L 150.25 110.55 145.25 118.75
Q 144.55 119.8 144.35 121.05
M 28.85 129.7
Q 28.85 132.1 30.5 133.75 32.2 135.45 34.6 135.45 37 135.45 38.65 133.75 40.35 132.1 40.35 129.7 40.35 129.15 40.25 128.6 40.1 127.65 39.6 126.8
L 34.85 118.2 29.85 126.4
Q 29.15 127.45 28.95 128.7 28.85 129.15 28.85 129.7
M 37.2 93.3
Q 37.2 95.7 38.85 97.35 40.55 99.05 42.95 99.05 45.35 99.05 47 97.35 48.7 95.7 48.7 93.3 48.7 92.75 48.6 92.2 48.45 91.25 47.95 90.4
L 44.45 84.05 41.85 84.05 38.2 90
Q 37.5 91.05 37.3 92.3 37.2 92.75 37.2 93.3 Z"/>
</g>

<g id="sol_0_Layer1_0_FILL">
<path fill="#FFC52C" stroke="none" d="
M 172.2 77.55
L 184.45 38.85 145.8 38.85 133.6 0 100.85 24.95 69.4 1.8 57.2 38.85 17.05 38.85 30.15 78.9 -0.05 102 29.35 123.55 17 161.1 57.15 161.05 69.4 198.3 100 175.35 133.6 200 145.85 161.05 184.35 161.05 171.9 121.6 201.7 99.3 172.2 77.55 Z"/>
</g>

<g id="bola_0_Layer0_0_FILL">
<path fill="#FEE7AC" stroke="none" d="
M 96.1 16.45
Q 92 12.35 87.5 9.3 73.8 0 56.35 0 33.05 0 16.45 16.45 0 33.05 0 56.35 0 56.75 0 57.05
L 0.15 57.05
Q 0.15 57.35 0.15 57.8 0 58.1 0 58.5 0 58.8 0 59.25 0 82.55 16.45 99.15 33.05 115.55 56.35 115.55 73.8 115.55 87.5 106.25 92 103.2 96.1 99.15 112.7 82.55 112.7 59.25 112.7 58.8 112.7 58.5 112.7 57.8 112.7 57.05 112.7 56.75 112.7 56.35 112.7 33.05 96.1 16.45 Z"/>
</g>

<g id="Symbol_5_0_Layer0_0_FILL">
<path fill="url(#Gradient_1)" stroke="none" d="
M 62.75 16.45
Q 58.65 12.35 54.15 9.3 40.45 0 23 0 10.55 0 0 4.75 7.5 7.05 14.15 11.55 18.65 14.6 22.75 18.7 39.35 35.3 39.35 58.6 39.35 59 39.35 59.3 39.35 60.05 39.35 60.75 39.35 61.05 39.35 61.5 39.35 84.8 22.75 101.4 18.65 105.45 14.15 108.5 10.2 111.2 5.95 113.1 13.95 115.55 23 115.55 40.45 115.55 54.15 106.25 58.65 103.2 62.75 99.15 79.35 82.55 79.35 59.25 79.35 58.8 79.35 58.5 79.35 57.8 79.35 57.05 79.35 56.75 79.35 56.35 79.35 33.05 62.75 16.45 Z"/>
</g>

<g id="strellita_0_Layer0_0_FILL">
<path fill="#FFFFFF" stroke="none" d="
M 5 2.5
Q 5 1.45 4.25 0.75 3.55 0 2.5 0 1.45 0 0.75 0.75 0 1.45 0 2.5 0 3.55 0.75 4.25 1.45 5 2.5 5 3.55 5 4.25 4.25 5 3.55 5 2.5 Z"/>
</g>

<g id="cloud_1_0_Layer0_0_FILL">
<path fill="#EAEAEA" stroke="none" d="
M 127.9 43.65
Q 128.7 41.05 128.7 38.1 128.7 30.85 123.4 25.65 118.35 20.45 111.05 20.45 103.65 20.45 98.45 25.65 98 26.1 97.65 26.6 96 16.85 88.6 9.4 79.2 0 65.75 0 52.35 0 42.8 9.4 35.75 16.6 34 26 33.2 25.9 32.35 25.9 18.95 25.9 9.4 35.3 0 44.85 0 58.25 0 71.65 9.4 81.05 18.95 90.6 32.35 90.6
L 127.05 90.6
Q 136.45 90.35 143.05 83.65 150 76.7 150 67.05 150 57.3 143.05 50.35 136.7 44 127.9 43.65 Z"/>
</g>

<g id="thunder_0_Layer0_0_FILL">
<path fill="#71b5fa" stroke="none" d="
M 35.85 0
L 13.85 0 0 37.4 22.35 37.4 7.05 80 52.45 21.3 28.25 21.3 35.85 0 Z"/>
</g>

<g id="dark_cloud_0_Layer0_0_FILL">
<path fill="#BBBBBB" stroke="none" d="
M 127.9 43.65
Q 128.7 41.05 128.7 38.1 128.7 30.85 123.4 25.65 118.35 20.45 111.05 20.45 103.65 20.45 98.45 25.65 98 26.1 97.65 26.6 96 16.85 88.6 9.4 79.2 0 65.75 0 52.35 0 42.8 9.4 35.75 16.6 34 26 33.2 25.9 32.35 25.9 18.95 25.9 9.4 35.3 0 44.85 0 58.25 0 71.65 9.4 81.05 18.95 90.6 32.35 90.6
L 127.05 90.6
Q 136.45 90.35 143.05 83.65 150 76.7 150 67.05 150 57.3 143.05 50.35 136.7 44 127.9 43.65 Z"/>
</g>

<g id="Duplicate_Items_Folder_cloud_1_0_Layer0_0_FILL">
<path fill="#FFFFFF" stroke="none" d="
M 128.7 38.1
Q 128.7 30.85 123.4 25.65 118.35 20.45 111.05 20.45 103.65 20.45 98.45 25.65 98 26.1 97.65 26.6 96 16.85 88.6 9.4 79.2 0 65.75 0 52.35 0 42.8 9.4 35.75 16.6 34 26 33.2 25.9 32.35 25.9 18.95 25.9 9.4 35.3 0 44.85 0 58.25 0 71.65 9.4 81.05 18.95 90.6 32.35 90.6
L 127.05 90.6
Q 136.45 90.35 143.05 83.65 150 76.7 150 67.05 150 57.3 143.05 50.35 136.7 44 127.9 43.65 128.7 41.05 128.7 38.1 Z"/>
</g>

<g id="rain_0_Layer0_0_FILL">
<path fill="#71b5fa" stroke="none" d="
M 67.8 48.15
Q 68.909375 47.717578125 69.8 46.8 71.5 45.15 71.5 42.75 71.5 42.2 71.4 41.65 71.25 40.7 70.75 39.85
L 67.8 34.5 67.8 48.15
M 60.1 41.75
Q 60 42.2 60 42.75 60 45.15 61.65 46.8 63.35 48.5 65.75 48.5 66.8544921875 48.5 67.8 48.15
L 67.8 34.5 66 31.25 61 39.45
Q 60.3 40.5 60.1 41.75
M 74.7 2.25
L 77.35 2.25 76.1 0 74.7 2.25
M 81.6 11.5
Q 81.6 10.95 81.5 10.4 81.35 9.45 80.85 8.6
L 77.35 2.25 74.7 2.25 71.1 8.2
Q 70.4 9.25 70.2 10.5 70.1 10.95 70.1 11.5 70.1 13.9 71.75 15.55 73.45 17.25 75.85 17.25 78.25 17.25 79.9 15.55 81.6 13.9 81.6 11.5
M 84.55 61.95
Q 86.25 60.3 86.25 57.9 86.25 57.35 86.15 56.8 86 55.85 85.5 55
L 80.75 46.4 75.75 54.6
Q 75.05 55.65 74.85 56.9 74.75 57.35 74.75 57.9 74.75 60.3 76.4 61.95 78.1 63.65 80.5 63.65 82.9 63.65 84.55 61.95
M 118 35
L 113.25 26.4 108.25 34.6
Q 107.55 35.65 107.35 36.9 107.25 37.35 107.25 37.9 107.25 40.3 108.9 41.95 110.6 43.65 113 43.65 115.4 43.65 117.05 41.95 118.75 40.3 118.75 37.9 118.75 37.35 118.65 36.8 118.5 35.85 118 35
M 92.6 45.65
Q 92.5 46.1 92.5 46.65 92.5 49.05 94.15 50.7 95.85 52.4 98.25 52.4 100.65 52.4 102.3 50.7 104 49.05 104 46.65 104 46.1 103.9 45.55 103.75 44.6 103.25 43.75
L 98.5 35.15 93.5 43.35
Q 92.8 44.4 92.6 45.65
M 94.75 24.25
L 90 15.65 85 23.85
Q 84.3 24.9 84.1 26.15 84 26.6 84 27.15 84 29.55 85.65 31.2 87.35 32.9 89.75 32.9 92.15 32.9 93.8 31.2 95.5 29.55 95.5 27.15 95.5 26.6 95.4 26.05 95.25 25.1 94.75 24.25
M 133 39.9
L 128 48.1
Q 127.3 49.15 127.1 50.4 127 50.85 127 51.4 127 53.8 128.65 55.45 130.35 57.15 132.75 57.15 135.15 57.15 136.8 55.45 138.5 53.8 138.5 51.4 138.5 50.85 138.4 50.3 138.25 49.35 137.75 48.5
L 133 39.9
M 131 15.65
L 126 23.85
Q 125.3 24.9 125.1 26.15 125 26.6 125 27.15 125 29.55 126.65 31.2 128.35 32.9 130.75 32.9 133.15 32.9 134.8 31.2 136.5 29.55 136.5 27.15 136.5 26.6 136.4 26.05 136.25 25.1 135.75 24.25
L 131 15.65
M 61.75 66.15
Q 61.75 65.6 61.65 65.05 61.5 64.1 61 63.25
L 56.25 54.65 51.25 62.85
Q 50.55 63.9 50.35 65.15 50.25 65.6 50.25 66.15 50.25 68.55 51.9 70.2 53.6 71.9 56 71.9 58.4 71.9 60.05 70.2 61.75 68.55 61.75 66.15
M 11.4 60.3
Q 11.25 59.35 10.75 58.5
L 6 49.9 1 58.1
Q 0.3 59.15 0.1 60.4 0 60.85 0 61.4 0 63.8 1.65 65.45 3.35 67.15 5.75 67.15 8.15 67.15 9.8 65.45 11.5 63.8 11.5 61.4 11.5 60.85 11.4 60.3
M 31.5 55.15
Q 31.5 54.6 31.4 54.05 31.25 53.1 30.75 52.25
L 26 43.65 21 51.85
Q 20.3 52.9 20.1 54.15 20 54.6 20 55.15 20 57.55 21.65 59.2 23.35 60.9 25.75 60.9 28.15 60.9 29.8 59.2 31.5 57.55 31.5 55.15
M 10 34.15
Q 10 36.55 11.65 38.2 13.35 39.9 15.75 39.9 18.15 39.9 19.8 38.2 21.5 36.55 21.5 34.15 21.5 33.6 21.4 33.05 21.25 32.1 20.75 31.25
L 16 22.65 11 30.85
Q 10.3 31.9 10.1 33.15 10 33.6 10 34.15
M 44.5 48.5
Q 46.9 48.5 48.55 46.8 50.25 45.15 50.25 42.75 50.25 42.2 50.15 41.65 50 40.7 49.5 39.85
L 44.75 31.25 39.75 39.45
Q 39.05 40.5 38.85 41.75 38.75 42.2 38.75 42.75 38.75 45.15 40.4 46.8 42.1 48.5 44.5 48.5 Z"/>
</g>

<g id="Duplicate_Items_Folder_dark_cloud_0_Layer0_0_FILL">
<path fill="#BBBBBB" stroke="none" d="
M 127.9 43.65
Q 128.7 41.05 128.7 38.1 128.7 30.85 123.4 25.65 118.35 20.45 111.05 20.45 103.65 20.45 98.45 25.65 98 26.1 97.65 26.6 96 16.85 88.6 9.4 79.2 0 65.75 0 52.35 0 42.8 9.4 35.75 16.6 34 26 33.2 25.9 32.35 25.9 18.95 25.9 9.4 35.3 0 44.85 0 58.25 0 71.65 9.4 81.05 18.95 90.6 32.35 90.6
L 127.05 90.6
Q 136.45 90.35 143.05 83.65 150 76.7 150 67.05 150 57.3 143.05 50.35 136.7 44 127.9 43.65 Z"/>
</g>

<g id="Duplicate_Items_Folder_cloud_1_copy_0_Layer0_0_FILL">
<path fill="#FFFFFF" stroke="none" d="
M 127.9 43.65
Q 128.7 41.05 128.7 38.1 128.7 30.85 123.4 25.65 118.35 20.45 111.05 20.45 103.65 20.45 98.45 25.65 98 26.1 97.65 26.6 96 16.85 88.6 9.4 79.2 0 65.75 0 52.35 0 42.8 9.4 35.75 16.6 34 26 33.2 25.9 32.35 25.9 18.95 25.9 9.4 35.3 0 44.85 0 58.25 0 71.65 9.4 81.05 18.95 90.6 32.35 90.6
L 127.05 90.6
Q 136.45 90.35 143.05 83.65 150 76.7 150 67.05 150 57.3 143.05 50.35 136.7 44 127.9 43.65 Z"/>
</g>
</defs>

<g transform="matrix( 1, 0, 0, 1, 0,0) ">
<use xlink:href="#Layer2_0_FILL"/>
</g>

<g transform="matrix( 0.6212615966796875, 0, 0, 0.625, 58.95,35.6) ">
<g transform="matrix( 0.79974365234375, 0, 0, 0.79998779296875, -30.8,-57) ">
<g transform="matrix( 1, 0, 0, 1, 0,0) ">
<g transform="matrix( 1, 0, 0, 1, 0,0) ">
<use xlink:href="#sol_0_Layer1_0_FILL"/>
</g>

<g transform="matrix( 1, 0, 0, 1, 44.35,42.2) ">
<g transform="matrix( 1, 0, 0, 1, 0,0) ">
<use xlink:href="#bola_0_Layer0_0_FILL"/>
</g>
</g>
</g>
</g>
</g>

<g transform="matrix( 0.869781494140625, 0, 0, 0.875, 388.95,49.85) ">
<g transform="matrix( 0.79974365234375, 0, 0, 0.79998779296875, -30.8,-57) ">
<g transform="matrix( 1, 0, 0, 1, 0,0) ">
<g transform="matrix( 1, 0, 0, 1, 0,0) ">
<use xlink:href="#sol_0_Layer1_0_FILL"/>
</g>

<g transform="matrix( 1, 0, 0, 1, 44.35,42.2) ">
<g transform="matrix( 1, 0, 0, 1, 0,0) ">
<use xlink:href="#bola_0_Layer0_0_FILL"/>
</g>
</g>
</g>
</g>
</g>

<g transform="matrix( 1, 0, 0, 1, 478.5,173.5) ">
<g transform="matrix( 1, 0, 0, 1, -22.8,0) ">
<g transform="matrix( 1, 0, 0, 1, 33.35,0) ">
<g transform="matrix( 1, 0, 0, 1, 0,0) ">
<use xlink:href="#Symbol_5_0_Layer0_0_FILL"/>
</g>
</g>

<g transform="matrix( 1, 0, 0, 1, 109.3,106.45) ">
<g transform="matrix( 1, 0, 0, 1, 0,0) ">
<use xlink:href="#strellita_0_Layer0_0_FILL"/>
</g>
</g>

<g transform="matrix( 1, 0, 0, 1, 17.5,7.5) ">
<g transform="matrix( 1, 0, 0, 1, 0,0) ">
<use xlink:href="#strellita_0_Layer0_0_FILL"/>
</g>
</g>

<g transform="matrix( 1, 0, 0, 1, 57.5,-22.5) ">
<g transform="matrix( 1, 0, 0, 1, 0,0) ">
<use xlink:href="#strellita_0_Layer0_0_FILL"/>
</g>
</g>

<g transform="matrix( 1, 0, 0, 1, 17.5,87.5) ">
<g transform="matrix( 1, 0, 0, 1, 0,0) ">
<use xlink:href="#strellita_0_Layer0_0_FILL"/>
</g>
</g>
</g>

<g transform="matrix( 0.8311614990234375, 0, 0, 0.8311614990234375, -76.45,24) ">
<g transform="matrix( 1, 0, 0, 1, 0,0) ">
<use xlink:href="#cloud_1_0_Layer0_0_FILL"/>
</g>
</g>
</g>

<g transform="matrix( 0.920013427734375, 0, 0, 0.9197540283203125, 390,-168.45) ">
<g transform="matrix( 0.8311614990234375, 0, 0, 0.8311614990234375, 0,30) ">
<g transform="matrix( 1, 0, 0, 1, 0,0) ">
<use xlink:href="#cloud_1_0_Layer0_0_FILL"/>
</g>
</g>

<g transform="matrix( -0.8311614990234375, 0, 0, 0.8311614990234375, 195.65,0) ">
<g transform="matrix( 1, 0, 0, 1, 0,0) ">
<use xlink:href="#cloud_1_0_Layer0_0_FILL"/>
</g>
</g>
</g>

<g id="MovieClip18" transform="matrix( 0.8000030517578125, 0, 0, 0.7997589111328125, 630,-103.95) ">
<g transform="matrix( 1, 0, 0, 1, 63.8,90) ">
<g transform="matrix( 1, 0, 0, 1, 0,0) ">
<use xlink:href="#thunder_0_Layer0_0_FILL"/>
</g>
</g>

<g transform="matrix( 0.6243896484375, 0, 0, 0.625, 133.6,85) ">
<g transform="matrix( 1, 0, 0, 1, 0,0) ">
<use xlink:href="#thunder_0_Layer0_0_FILL"/>
</g>
</g>

<g transform="matrix( 1, 0, 0, 1, 75,4.7) ">
<g transform="matrix( 1, 0, 0, 1, 0,0) ">
<use xlink:href="#dark_cloud_0_Layer0_0_FILL"/>
</g>
</g>

<g transform="matrix( 0.8311614990234375, 0, 0, 0.8311614990234375, 0,30) ">
<g transform="matrix( 1, 0, 0, 1, 0,0) ">
<use xlink:href="#Duplicate_Items_Folder_cloud_1_0_Layer0_0_FILL"/>
</g>
</g>
</g>

<g transform="matrix( 1, 0, 0, 1, -200,108.4) ">
<g transform="matrix( 1, 0, 0, 1, 14.25,51.3) ">
<g transform="matrix( 1, 0, 0, 1, 0,0) ">
<use xlink:href="#rain_0_Layer0_0_FILL"/>
</g>
</g>

<g transform="matrix( 0.79998779296875, 0, 0, 0.7996826171875, 0,-3.75) ">
<g transform="matrix( 1, 0, 0, 1, 75,4.7) ">
<g transform="matrix( 1, 0, 0, 1, 0,0) ">
<use xlink:href="#Duplicate_Items_Folder_dark_cloud_0_Layer0_0_FILL"/>
</g>
</g>

<g transform="matrix( 0.8311614990234375, 0, 0, 0.8311614990234375, 0,30) ">
<g transform="matrix( 1, 0, 0, 1, 0,0) ">
<use xlink:href="#Duplicate_Items_Folder_cloud_1_copy_0_Layer0_0_FILL"/>
</g>
</g>
</g>
</g>

<g transform="matrix( 0.799774169921875, 0, 0, 0.800140380859375, 60.05,30) ">
<g transform="matrix( 1, 0, 0, 1, 0,0) ">
<use xlink:href="#Duplicate_Items_Folder_dark_cloud_0_Layer0_0_FILL"/>
</g>
</g>

<g transform="matrix( 0.66473388671875, 0, 0, 0.6650390625, 0,50.3) ">
<g transform="matrix( 1, 0, 0, 1, 0,0) ">
<use xlink:href="#Duplicate_Items_Folder_cloud_1_copy_0_Layer0_0_FILL"/>
</g>
</g>
</svg>
